<?xml version="1.0" encoding="UTF-8" standalone="no"?>
<!DOCTYPE svg PUBLIC "-//W3C//DTD SVG 1.1//EN"
 "http://www.w3.org/Graphics/SVG/1.1/DTD/svg11.dtd">
<!-- Generated by graphviz version 5.0.0 (20220707.1540)
 -->
<!-- Title: dependencies Pages: 1 -->
<svg width="804pt" height="247pt"
 viewBox="0.00 0.00 804.00 246.80" xmlns="http://www.w3.org/2000/svg" xmlns:xlink="http://www.w3.org/1999/xlink">
<g id="graph0" class="graph" transform="scale(1 1) rotate(0) translate(4 242.8)">
<title>dependencies</title>
<polygon fill="white" stroke="transparent" points="-4,4 -4,-242.8 800,-242.8 800,4 -4,4"/>
<text text-anchor="middle" x="398" y="-8.2" font-family="sans-serif" font-size="14.00">dependencies</text>
<g id="clust1" class="cluster">
<title>cluster_AppModule</title>
<polygon fill="none" stroke="black" stroke-dasharray="1,5" points="8,-32.8 8,-230.8 788,-230.8 788,-32.8 8,-32.8"/>
</g>
<g id="clust2" class="cluster">
<title>cluster_AppModule_declarations</title>
<polygon fill="none" stroke="black" points="168,-40.8 168,-92.8 780,-92.8 780,-40.8 168,-40.8"/>
</g>
<g id="clust7" class="cluster">
<title>cluster_AppModule_imports</title>
<polygon fill="none" stroke="black" points="16,-40.8 16,-92.8 160,-92.8 160,-40.8 16,-40.8"/>
</g>
<g id="clust9" class="cluster">
<title>cluster_AppModule_bootstrap</title>
<polygon fill="none" stroke="black" points="333,-170.8 333,-222.8 457,-222.8 457,-170.8 333,-170.8"/>
</g>
<!-- AddProductComponent -->
<g id="node1" class="node">
<title>AddProductComponent</title>
<polygon fill="#ffffb3" stroke="black" points="772.49,-84.8 623.51,-84.8 623.51,-48.8 772.49,-48.8 772.49,-84.8"/>
<text text-anchor="middle" x="698" y="-62.6" font-family="Times,serif" font-size="14.00">AddProductComponent</text>
</g>
<!-- AppModule -->
<g id="node5" class="node">
<title>AppModule</title>
<polygon fill="#8dd3c7" stroke="black" points="436.66,-149.8 433.66,-153.8 412.66,-153.8 409.66,-149.8 353.34,-149.8 353.34,-113.8 436.66,-113.8 436.66,-149.8"/>
<text text-anchor="middle" x="395" y="-127.6" font-family="Times,serif" font-size="14.00">AppModule</text>
</g>
<!-- AddProductComponent&#45;&gt;AppModule -->
<g id="edge1" class="edge">
<title>AddProductComponent&#45;&gt;AppModule</title>
<path fill="none" stroke="black" d="M698,-85.08C698,-106.12 698,-137.8 698,-137.8 698,-137.8 446.81,-137.8 446.81,-137.8"/>
<polygon fill="black" stroke="black" points="446.81,-134.3 436.81,-137.8 446.81,-141.3 446.81,-134.3"/>
</g>
<!-- AppComponent -->
<g id="node2" class="node">
<title>AppComponent</title>
<polygon fill="#ffffb3" stroke="black" points="605.94,-84.8 500.06,-84.8 500.06,-48.8 605.94,-48.8 605.94,-84.8"/>
<text text-anchor="middle" x="553" y="-62.6" font-family="Times,serif" font-size="14.00">AppComponent</text>
</g>
<!-- AppComponent&#45;&gt;AppModule -->
<g id="edge2" class="edge">
<title>AppComponent&#45;&gt;AppModule</title>
<path fill="none" stroke="black" d="M553,-84.82C553,-102.17 553,-125.8 553,-125.8 553,-125.8 446.93,-125.8 446.93,-125.8"/>
<polygon fill="black" stroke="black" points="446.93,-122.3 436.93,-125.8 446.93,-129.3 446.93,-122.3"/>
</g>
<!-- SellerDashboardComponent -->
<g id="node3" class="node">
<title>SellerDashboardComponent</title>
<polygon fill="#ffffb3" stroke="black" points="482.14,-84.8 307.86,-84.8 307.86,-48.8 482.14,-48.8 482.14,-84.8"/>
<text text-anchor="middle" x="395" y="-62.6" font-family="Times,serif" font-size="14.00">SellerDashboardComponent</text>
</g>
<!-- SellerDashboardComponent&#45;&gt;AppModule -->
<g id="edge3" class="edge">
<title>SellerDashboardComponent&#45;&gt;AppModule</title>
<path fill="none" stroke="black" d="M395,-84.91C395,-84.91 395,-103.79 395,-103.79"/>
<polygon fill="black" stroke="black" points="391.5,-103.79 395,-113.79 398.5,-103.79 391.5,-103.79"/>
</g>
<!-- TableComponent -->
<g id="node4" class="node">
<title>TableComponent</title>
<polygon fill="#ffffb3" stroke="black" points="289.7,-84.8 176.3,-84.8 176.3,-48.8 289.7,-48.8 289.7,-84.8"/>
<text text-anchor="middle" x="233" y="-62.6" font-family="Times,serif" font-size="14.00">TableComponent</text>
</g>
<!-- TableComponent&#45;&gt;AppModule -->
<g id="edge4" class="edge">
<title>TableComponent&#45;&gt;AppModule</title>
<path fill="none" stroke="black" d="M233,-84.82C233,-102.17 233,-125.8 233,-125.8 233,-125.8 343.28,-125.8 343.28,-125.8"/>
<polygon fill="black" stroke="black" points="343.28,-129.3 353.28,-125.8 343.28,-122.3 343.28,-129.3"/>
</g>
<!-- AppComponent  -->
<g id="node7" class="node">
<title>AppComponent </title>
<polygon fill="#80b1d3" stroke="black" points="449.44,-214.8 340.56,-214.8 340.56,-178.8 449.44,-178.8 449.44,-214.8"/>
<text text-anchor="middle" x="395" y="-192.6" font-family="Times,serif" font-size="14.00">AppComponent </text>
</g>
<!-- AppModule&#45;&gt;AppComponent  -->
<g id="edge6" class="edge">
<title>AppModule&#45;&gt;AppComponent </title>
<path fill="none" stroke="black" stroke-dasharray="1,5" d="M395,-149.91C395,-149.91 395,-168.79 395,-168.79"/>
<polygon fill="black" stroke="black" points="391.5,-168.79 395,-178.79 398.5,-168.79 391.5,-168.79"/>
</g>
<!-- AppRoutingModule -->
<g id="node6" class="node">
<title>AppRoutingModule</title>
<polygon fill="#8dd3c7" stroke="black" points="152.28,-84.8 149.28,-88.8 128.28,-88.8 125.28,-84.8 23.72,-84.8 23.72,-48.8 152.28,-48.8 152.28,-84.8"/>
<text text-anchor="middle" x="88" y="-62.6" font-family="Times,serif" font-size="14.00">AppRoutingModule</text>
</g>
<!-- AppRoutingModule&#45;&gt;AppModule -->
<g id="edge5" class="edge">
<title>AppRoutingModule&#45;&gt;AppModule</title>
<path fill="none" stroke="black" d="M88,-85.08C88,-106.12 88,-137.8 88,-137.8 88,-137.8 343.28,-137.8 343.28,-137.8"/>
<polygon fill="black" stroke="black" points="343.28,-141.3 353.28,-137.8 343.28,-134.3 343.28,-141.3"/>
</g>
</g>
</svg>
