<?xml version="1.0" encoding="UTF-8" standalone="no"?>
<!DOCTYPE svg PUBLIC "-//W3C//DTD SVG 1.1//EN"
 "http://www.w3.org/Graphics/SVG/1.1/DTD/svg11.dtd">
<!-- Generated by graphviz version 5.0.0 (20220707.1540)
 -->
<!-- Title: dependencies Pages: 1 -->
<svg width="120pt" height="247pt"
 viewBox="0.00 0.00 120.00 246.80" xmlns="http://www.w3.org/2000/svg" xmlns:xlink="http://www.w3.org/1999/xlink">
<g id="graph0" class="graph" transform="scale(1 1) rotate(0) translate(4 242.8)">
<title>dependencies</title>
<polygon fill="white" stroke="transparent" points="-4,4 -4,-242.8 116,-242.8 116,4 -4,4"/>
<text text-anchor="middle" x="56" y="-8.2" font-family="sans-serif" font-size="14.00">dependencies</text>
<g id="clust1" class="cluster">
<title>cluster_PayModule</title>
<polygon fill="none" stroke="black" stroke-dasharray="1,5" points="8,-32.8 8,-230.8 104,-230.8 104,-32.8 8,-32.8"/>
</g>
<g id="clust2" class="cluster">
<title>cluster_PayModule_declarations</title>
<polygon fill="none" stroke="black" points="21,-40.8 21,-92.8 91,-92.8 91,-40.8 21,-40.8"/>
</g>
<g id="clust5" class="cluster">
<title>cluster_PayModule_exports</title>
<polygon fill="none" stroke="black" points="21,-170.8 21,-222.8 91,-222.8 91,-170.8 21,-170.8"/>
</g>
<!-- pay -->
<g id="node1" class="node">
<title>pay</title>
<polygon fill="#ffffb3" stroke="black" points="83,-84.8 29,-84.8 29,-48.8 83,-48.8 83,-84.8"/>
<text text-anchor="middle" x="56" y="-62.6" font-family="Times,serif" font-size="14.00">pay</text>
</g>
<!-- PayModule -->
<g id="node2" class="node">
<title>PayModule</title>
<polygon fill="#8dd3c7" stroke="black" points="96.05,-149.8 93.05,-153.8 72.05,-153.8 69.05,-149.8 15.95,-149.8 15.95,-113.8 96.05,-113.8 96.05,-149.8"/>
<text text-anchor="middle" x="56" y="-127.6" font-family="Times,serif" font-size="14.00">PayModule</text>
</g>
<!-- pay&#45;&gt;PayModule -->
<g id="edge1" class="edge">
<title>pay&#45;&gt;PayModule</title>
<path fill="none" stroke="black" d="M56,-84.91C56,-84.91 56,-103.79 56,-103.79"/>
<polygon fill="black" stroke="black" points="52.5,-103.79 56,-113.79 59.5,-103.79 52.5,-103.79"/>
</g>
<!-- pay  -->
<g id="node3" class="node">
<title>pay </title>
<polygon fill="#fb8072" stroke="black" points="83,-214.8 29,-214.8 29,-178.8 83,-178.8 83,-214.8"/>
<text text-anchor="middle" x="56" y="-192.6" font-family="Times,serif" font-size="14.00">pay </text>
</g>
<!-- PayModule&#45;&gt;pay  -->
<g id="edge2" class="edge">
<title>PayModule&#45;&gt;pay </title>
<path fill="none" stroke="black" stroke-dasharray="5,2" d="M56,-149.91C56,-149.91 56,-168.79 56,-168.79"/>
<polygon fill="black" stroke="black" points="52.5,-168.79 56,-178.79 59.5,-168.79 52.5,-168.79"/>
</g>
</g>
</svg>
