<?xml version="1.0" encoding="UTF-8" standalone="no"?>
<!DOCTYPE svg PUBLIC "-//W3C//DTD SVG 1.1//EN"
 "http://www.w3.org/Graphics/SVG/1.1/DTD/svg11.dtd">
<!-- Generated by graphviz version 5.0.0 (20220707.1540)
 -->
<!-- Title: dependencies Pages: 1 -->
<svg width="148pt" height="247pt"
 viewBox="0.00 0.00 148.00 246.80" xmlns="http://www.w3.org/2000/svg" xmlns:xlink="http://www.w3.org/1999/xlink">
<g id="graph0" class="graph" transform="scale(1 1) rotate(0) translate(4 242.8)">
<title>dependencies</title>
<polygon fill="white" stroke="transparent" points="-4,4 -4,-242.8 144,-242.8 144,4 -4,4"/>
<text text-anchor="middle" x="70" y="-8.2" font-family="sans-serif" font-size="14.00">dependencies</text>
<g id="clust1" class="cluster">
<title>cluster_ProductsModule</title>
<polygon fill="none" stroke="black" stroke-dasharray="1,5" points="8,-32.8 8,-230.8 132,-230.8 132,-32.8 8,-32.8"/>
</g>
<g id="clust2" class="cluster">
<title>cluster_ProductsModule_declarations</title>
<polygon fill="none" stroke="black" points="30,-40.8 30,-92.8 110,-92.8 110,-40.8 30,-40.8"/>
</g>
<g id="clust5" class="cluster">
<title>cluster_ProductsModule_exports</title>
<polygon fill="none" stroke="black" points="28,-170.8 28,-222.8 112,-222.8 112,-170.8 28,-170.8"/>
</g>
<!-- products -->
<g id="node1" class="node">
<title>products</title>
<polygon fill="#ffffb3" stroke="black" points="102.21,-84.8 37.79,-84.8 37.79,-48.8 102.21,-48.8 102.21,-84.8"/>
<text text-anchor="middle" x="70" y="-62.6" font-family="Times,serif" font-size="14.00">products</text>
</g>
<!-- ProductsModule -->
<g id="node2" class="node">
<title>ProductsModule</title>
<polygon fill="#8dd3c7" stroke="black" points="124.05,-149.8 121.05,-153.8 100.05,-153.8 97.05,-149.8 15.95,-149.8 15.95,-113.8 124.05,-113.8 124.05,-149.8"/>
<text text-anchor="middle" x="70" y="-127.6" font-family="Times,serif" font-size="14.00">ProductsModule</text>
</g>
<!-- products&#45;&gt;ProductsModule -->
<g id="edge1" class="edge">
<title>products&#45;&gt;ProductsModule</title>
<path fill="none" stroke="black" d="M70,-84.91C70,-84.91 70,-103.79 70,-103.79"/>
<polygon fill="black" stroke="black" points="66.5,-103.79 70,-113.79 73.5,-103.79 66.5,-103.79"/>
</g>
<!-- products  -->
<g id="node3" class="node">
<title>products </title>
<polygon fill="#fb8072" stroke="black" points="103.71,-214.8 36.29,-214.8 36.29,-178.8 103.71,-178.8 103.71,-214.8"/>
<text text-anchor="middle" x="70" y="-192.6" font-family="Times,serif" font-size="14.00">products </text>
</g>
<!-- ProductsModule&#45;&gt;products  -->
<g id="edge2" class="edge">
<title>ProductsModule&#45;&gt;products </title>
<path fill="none" stroke="black" stroke-dasharray="5,2" d="M70,-149.91C70,-149.91 70,-168.79 70,-168.79"/>
<polygon fill="black" stroke="black" points="66.5,-168.79 70,-178.79 73.5,-168.79 66.5,-168.79"/>
</g>
</g>
</svg>
