<?xml version="1.0" encoding="UTF-8" standalone="no"?>
<!DOCTYPE svg PUBLIC "-//W3C//DTD SVG 1.1//EN"
 "http://www.w3.org/Graphics/SVG/1.1/DTD/svg11.dtd">
<!-- Generated by graphviz version 5.0.0 (20220707.1540)
 -->
<!-- Title: dependencies Pages: 1 -->
<svg width="3219pt" height="247pt"
 viewBox="0.00 0.00 3219.00 246.80" xmlns="http://www.w3.org/2000/svg" xmlns:xlink="http://www.w3.org/1999/xlink">
<g id="graph0" class="graph" transform="scale(1 1) rotate(0) translate(4 242.8)">
<title>dependencies</title>
<polygon fill="white" stroke="transparent" points="-4,4 -4,-242.8 3215,-242.8 3215,4 -4,4"/>
<text text-anchor="middle" x="1605.5" y="-8.2" font-family="sans-serif" font-size="14.00">dependencies</text>
<g id="clust1" class="cluster">
<title>cluster_AppModule</title>
<polygon fill="none" stroke="black" stroke-dasharray="1,5" points="8,-32.8 8,-230.8 788,-230.8 788,-32.8 8,-32.8"/>
</g>
<g id="clust2" class="cluster">
<title>cluster_AppModule_declarations</title>
<polygon fill="none" stroke="black" points="168,-40.8 168,-92.8 780,-92.8 780,-40.8 168,-40.8"/>
</g>
<g id="clust7" class="cluster">
<title>cluster_AppModule_imports</title>
<polygon fill="none" stroke="black" points="16,-40.8 16,-92.8 160,-92.8 160,-40.8 16,-40.8"/>
</g>
<g id="clust9" class="cluster">
<title>cluster_AppModule_bootstrap</title>
<polygon fill="none" stroke="black" points="333,-170.8 333,-222.8 457,-222.8 457,-170.8 333,-170.8"/>
</g>
<g id="clust17" class="cluster">
<title>cluster_BasketModule</title>
<polygon fill="none" stroke="black" stroke-dasharray="1,5" points="796,-32.8 796,-230.8 910,-230.8 910,-32.8 796,-32.8"/>
</g>
<g id="clust18" class="cluster">
<title>cluster_BasketModule_declarations</title>
<polygon fill="none" stroke="black" points="818,-40.8 818,-92.8 888,-92.8 888,-40.8 818,-40.8"/>
</g>
<g id="clust21" class="cluster">
<title>cluster_BasketModule_exports</title>
<polygon fill="none" stroke="black" points="817,-170.8 817,-222.8 889,-222.8 889,-170.8 817,-170.8"/>
</g>
<g id="clust24" class="cluster">
<title>cluster_ComponentsModule</title>
<polygon fill="none" stroke="black" stroke-dasharray="1,5" points="918,-32.8 918,-230.8 2325,-230.8 2325,-32.8 918,-32.8"/>
</g>
<g id="clust25" class="cluster">
<title>cluster_ComponentsModule_declarations</title>
<polygon fill="none" stroke="black" points="944,-40.8 944,-92.8 2300,-92.8 2300,-40.8 944,-40.8"/>
</g>
<g id="clust38" class="cluster">
<title>cluster_ComponentsModule_exports</title>
<polygon fill="none" stroke="black" points="926,-170.8 926,-222.8 2317,-222.8 2317,-170.8 926,-170.8"/>
</g>
<g id="clust41" class="cluster">
<title>cluster_HomeModule</title>
<polygon fill="none" stroke="black" stroke-dasharray="1,5" points="2333,-32.8 2333,-230.8 2443,-230.8 2443,-32.8 2333,-32.8"/>
</g>
<g id="clust42" class="cluster">
<title>cluster_HomeModule_declarations</title>
<polygon fill="none" stroke="black" points="2353,-40.8 2353,-92.8 2423,-92.8 2423,-40.8 2353,-40.8"/>
</g>
<g id="clust45" class="cluster">
<title>cluster_HomeModule_exports</title>
<polygon fill="none" stroke="black" points="2353,-170.8 2353,-222.8 2423,-222.8 2423,-170.8 2353,-170.8"/>
</g>
<g id="clust48" class="cluster">
<title>cluster_LoginUserModule</title>
<polygon fill="none" stroke="black" stroke-dasharray="1,5" points="2451,-32.8 2451,-230.8 2587,-230.8 2587,-32.8 2451,-32.8"/>
</g>
<g id="clust49" class="cluster">
<title>cluster_LoginUserModule_declarations</title>
<polygon fill="none" stroke="black" points="2477,-40.8 2477,-92.8 2561,-92.8 2561,-40.8 2477,-40.8"/>
</g>
<g id="clust52" class="cluster">
<title>cluster_LoginUserModule_exports</title>
<polygon fill="none" stroke="black" points="2475,-170.8 2475,-222.8 2563,-222.8 2563,-170.8 2475,-170.8"/>
</g>
<g id="clust55" class="cluster">
<title>cluster_OrdersModule</title>
<polygon fill="none" stroke="black" stroke-dasharray="1,5" points="2595,-32.8 2595,-230.8 2709,-230.8 2709,-32.8 2595,-32.8"/>
</g>
<g id="clust56" class="cluster">
<title>cluster_OrdersModule_declarations</title>
<polygon fill="none" stroke="black" points="2617,-40.8 2617,-92.8 2687,-92.8 2687,-40.8 2617,-40.8"/>
</g>
<g id="clust59" class="cluster">
<title>cluster_OrdersModule_exports</title>
<polygon fill="none" stroke="black" points="2615,-170.8 2615,-222.8 2689,-222.8 2689,-170.8 2615,-170.8"/>
</g>
<g id="clust62" class="cluster">
<title>cluster_PayModule</title>
<polygon fill="none" stroke="black" stroke-dasharray="1,5" points="2717,-32.8 2717,-230.8 2813,-230.8 2813,-32.8 2717,-32.8"/>
</g>
<g id="clust63" class="cluster">
<title>cluster_PayModule_declarations</title>
<polygon fill="none" stroke="black" points="2730,-40.8 2730,-92.8 2800,-92.8 2800,-40.8 2730,-40.8"/>
</g>
<g id="clust66" class="cluster">
<title>cluster_PayModule_exports</title>
<polygon fill="none" stroke="black" points="2730,-170.8 2730,-222.8 2800,-222.8 2800,-170.8 2730,-170.8"/>
</g>
<g id="clust69" class="cluster">
<title>cluster_ProductModule</title>
<polygon fill="none" stroke="black" stroke-dasharray="1,5" points="2821,-32.8 2821,-230.8 2941,-230.8 2941,-32.8 2821,-32.8"/>
</g>
<g id="clust70" class="cluster">
<title>cluster_ProductModule_declarations</title>
<polygon fill="none" stroke="black" points="2844,-40.8 2844,-92.8 2918,-92.8 2918,-40.8 2844,-40.8"/>
</g>
<g id="clust73" class="cluster">
<title>cluster_ProductModule_exports</title>
<polygon fill="none" stroke="black" points="2842,-170.8 2842,-222.8 2920,-222.8 2920,-170.8 2842,-170.8"/>
</g>
<g id="clust76" class="cluster">
<title>cluster_ProductsModule</title>
<polygon fill="none" stroke="black" stroke-dasharray="1,5" points="2949,-32.8 2949,-230.8 3073,-230.8 3073,-32.8 2949,-32.8"/>
</g>
<g id="clust77" class="cluster">
<title>cluster_ProductsModule_declarations</title>
<polygon fill="none" stroke="black" points="2971,-40.8 2971,-92.8 3051,-92.8 3051,-40.8 2971,-40.8"/>
</g>
<g id="clust80" class="cluster">
<title>cluster_ProductsModule_exports</title>
<polygon fill="none" stroke="black" points="2969,-170.8 2969,-222.8 3053,-222.8 3053,-170.8 2969,-170.8"/>
</g>
<g id="clust83" class="cluster">
<title>cluster_RegisterModule</title>
<polygon fill="none" stroke="black" stroke-dasharray="1,5" points="3081,-32.8 3081,-230.8 3203,-230.8 3203,-32.8 3081,-32.8"/>
</g>
<g id="clust84" class="cluster">
<title>cluster_RegisterModule_declarations</title>
<polygon fill="none" stroke="black" points="3105,-40.8 3105,-92.8 3179,-92.8 3179,-40.8 3105,-40.8"/>
</g>
<g id="clust87" class="cluster">
<title>cluster_RegisterModule_exports</title>
<polygon fill="none" stroke="black" points="3103,-170.8 3103,-222.8 3181,-222.8 3181,-170.8 3103,-170.8"/>
</g>
<!-- AddProductComponent -->
<g id="node1" class="node">
<title>AddProductComponent</title>
<polygon fill="#ffffb3" stroke="black" points="772.49,-84.8 623.51,-84.8 623.51,-48.8 772.49,-48.8 772.49,-84.8"/>
<text text-anchor="middle" x="698" y="-62.6" font-family="Times,serif" font-size="14.00">AddProductComponent</text>
</g>
<!-- AppModule -->
<g id="node5" class="node">
<title>AppModule</title>
<polygon fill="#8dd3c7" stroke="black" points="436.66,-149.8 433.66,-153.8 412.66,-153.8 409.66,-149.8 353.34,-149.8 353.34,-113.8 436.66,-113.8 436.66,-149.8"/>
<text text-anchor="middle" x="395" y="-127.6" font-family="Times,serif" font-size="14.00">AppModule</text>
</g>
<!-- AddProductComponent&#45;&gt;AppModule -->
<g id="edge1" class="edge">
<title>AddProductComponent&#45;&gt;AppModule</title>
<path fill="none" stroke="black" d="M698,-85.08C698,-106.12 698,-137.8 698,-137.8 698,-137.8 446.81,-137.8 446.81,-137.8"/>
<polygon fill="black" stroke="black" points="446.81,-134.3 436.81,-137.8 446.81,-141.3 446.81,-134.3"/>
</g>
<!-- AppComponent -->
<g id="node2" class="node">
<title>AppComponent</title>
<polygon fill="#ffffb3" stroke="black" points="605.94,-84.8 500.06,-84.8 500.06,-48.8 605.94,-48.8 605.94,-84.8"/>
<text text-anchor="middle" x="553" y="-62.6" font-family="Times,serif" font-size="14.00">AppComponent</text>
</g>
<!-- AppComponent&#45;&gt;AppModule -->
<g id="edge2" class="edge">
<title>AppComponent&#45;&gt;AppModule</title>
<path fill="none" stroke="black" d="M553,-84.82C553,-102.17 553,-125.8 553,-125.8 553,-125.8 446.93,-125.8 446.93,-125.8"/>
<polygon fill="black" stroke="black" points="446.93,-122.3 436.93,-125.8 446.93,-129.3 446.93,-122.3"/>
</g>
<!-- SellerDashboardComponent -->
<g id="node3" class="node">
<title>SellerDashboardComponent</title>
<polygon fill="#ffffb3" stroke="black" points="482.14,-84.8 307.86,-84.8 307.86,-48.8 482.14,-48.8 482.14,-84.8"/>
<text text-anchor="middle" x="395" y="-62.6" font-family="Times,serif" font-size="14.00">SellerDashboardComponent</text>
</g>
<!-- SellerDashboardComponent&#45;&gt;AppModule -->
<g id="edge3" class="edge">
<title>SellerDashboardComponent&#45;&gt;AppModule</title>
<path fill="none" stroke="black" d="M395,-84.91C395,-84.91 395,-103.79 395,-103.79"/>
<polygon fill="black" stroke="black" points="391.5,-103.79 395,-113.79 398.5,-103.79 391.5,-103.79"/>
</g>
<!-- TableComponent -->
<g id="node4" class="node">
<title>TableComponent</title>
<polygon fill="#ffffb3" stroke="black" points="289.7,-84.8 176.3,-84.8 176.3,-48.8 289.7,-48.8 289.7,-84.8"/>
<text text-anchor="middle" x="233" y="-62.6" font-family="Times,serif" font-size="14.00">TableComponent</text>
</g>
<!-- TableComponent&#45;&gt;AppModule -->
<g id="edge4" class="edge">
<title>TableComponent&#45;&gt;AppModule</title>
<path fill="none" stroke="black" d="M233,-84.82C233,-102.17 233,-125.8 233,-125.8 233,-125.8 343.28,-125.8 343.28,-125.8"/>
<polygon fill="black" stroke="black" points="343.28,-129.3 353.28,-125.8 343.28,-122.3 343.28,-129.3"/>
</g>
<!-- AppComponent  -->
<g id="node7" class="node">
<title>AppComponent </title>
<polygon fill="#80b1d3" stroke="black" points="449.44,-214.8 340.56,-214.8 340.56,-178.8 449.44,-178.8 449.44,-214.8"/>
<text text-anchor="middle" x="395" y="-192.6" font-family="Times,serif" font-size="14.00">AppComponent </text>
</g>
<!-- AppModule&#45;&gt;AppComponent  -->
<g id="edge6" class="edge">
<title>AppModule&#45;&gt;AppComponent </title>
<path fill="none" stroke="black" stroke-dasharray="1,5" d="M395,-149.91C395,-149.91 395,-168.79 395,-168.79"/>
<polygon fill="black" stroke="black" points="391.5,-168.79 395,-178.79 398.5,-168.79 391.5,-168.79"/>
</g>
<!-- AppRoutingModule -->
<g id="node6" class="node">
<title>AppRoutingModule</title>
<polygon fill="#8dd3c7" stroke="black" points="152.28,-84.8 149.28,-88.8 128.28,-88.8 125.28,-84.8 23.72,-84.8 23.72,-48.8 152.28,-48.8 152.28,-84.8"/>
<text text-anchor="middle" x="88" y="-62.6" font-family="Times,serif" font-size="14.00">AppRoutingModule</text>
</g>
<!-- AppRoutingModule&#45;&gt;AppModule -->
<g id="edge5" class="edge">
<title>AppRoutingModule&#45;&gt;AppModule</title>
<path fill="none" stroke="black" d="M88,-85.08C88,-106.12 88,-137.8 88,-137.8 88,-137.8 343.28,-137.8 343.28,-137.8"/>
<polygon fill="black" stroke="black" points="343.28,-141.3 353.28,-137.8 343.28,-134.3 343.28,-141.3"/>
</g>
<!-- basket -->
<g id="node8" class="node">
<title>basket</title>
<polygon fill="#ffffb3" stroke="black" points="880,-84.8 826,-84.8 826,-48.8 880,-48.8 880,-84.8"/>
<text text-anchor="middle" x="853" y="-62.6" font-family="Times,serif" font-size="14.00">basket</text>
</g>
<!-- BasketModule -->
<g id="node9" class="node">
<title>BasketModule</title>
<polygon fill="#8dd3c7" stroke="black" points="901.66,-149.8 898.66,-153.8 877.66,-153.8 874.66,-149.8 804.34,-149.8 804.34,-113.8 901.66,-113.8 901.66,-149.8"/>
<text text-anchor="middle" x="853" y="-127.6" font-family="Times,serif" font-size="14.00">BasketModule</text>
</g>
<!-- basket&#45;&gt;BasketModule -->
<g id="edge7" class="edge">
<title>basket&#45;&gt;BasketModule</title>
<path fill="none" stroke="black" d="M853,-84.91C853,-84.91 853,-103.79 853,-103.79"/>
<polygon fill="black" stroke="black" points="849.5,-103.79 853,-113.79 856.5,-103.79 849.5,-103.79"/>
</g>
<!-- basket  -->
<g id="node10" class="node">
<title>basket </title>
<polygon fill="#fb8072" stroke="black" points="880.77,-214.8 825.23,-214.8 825.23,-178.8 880.77,-178.8 880.77,-214.8"/>
<text text-anchor="middle" x="853" y="-192.6" font-family="Times,serif" font-size="14.00">basket </text>
</g>
<!-- BasketModule&#45;&gt;basket  -->
<g id="edge8" class="edge">
<title>BasketModule&#45;&gt;basket </title>
<path fill="none" stroke="black" stroke-dasharray="5,2" d="M853,-149.91C853,-149.91 853,-168.79 853,-168.79"/>
<polygon fill="black" stroke="black" points="849.5,-168.79 853,-178.79 856.5,-168.79 849.5,-168.79"/>
</g>
<!-- BlogPostCard -->
<g id="node11" class="node">
<title>BlogPostCard</title>
<polygon fill="#ffffb3" stroke="black" points="2292.07,-84.8 2197.93,-84.8 2197.93,-48.8 2292.07,-48.8 2292.07,-84.8"/>
<text text-anchor="middle" x="2245" y="-62.6" font-family="Times,serif" font-size="14.00">BlogPostCard</text>
</g>
<!-- ComponentsModule -->
<g id="node22" class="node">
<title>ComponentsModule</title>
<polygon fill="#8dd3c7" stroke="black" points="1740.33,-149.8 1737.33,-153.8 1716.33,-153.8 1713.33,-149.8 1609.67,-149.8 1609.67,-113.8 1740.33,-113.8 1740.33,-149.8"/>
<text text-anchor="middle" x="1675" y="-127.6" font-family="Times,serif" font-size="14.00">ComponentsModule</text>
</g>
<!-- BlogPostCard&#45;&gt;ComponentsModule -->
<g id="edge9" class="edge">
<title>BlogPostCard&#45;&gt;ComponentsModule</title>
<path fill="none" stroke="black" d="M2204.34,-85.02C2204.34,-103.63 2204.34,-129.8 2204.34,-129.8 2204.34,-129.8 1750.17,-129.8 1750.17,-129.8"/>
<polygon fill="black" stroke="black" points="1750.17,-126.3 1740.17,-129.8 1750.17,-133.3 1750.17,-126.3"/>
</g>
<!-- Cart -->
<g id="node12" class="node">
<title>Cart</title>
<polygon fill="#ffffb3" stroke="black" points="2180,-84.8 2126,-84.8 2126,-48.8 2180,-48.8 2180,-84.8"/>
<text text-anchor="middle" x="2153" y="-62.6" font-family="Times,serif" font-size="14.00">Cart</text>
</g>
<!-- Cart&#45;&gt;ComponentsModule -->
<g id="edge10" class="edge">
<title>Cart&#45;&gt;ComponentsModule</title>
<path fill="none" stroke="black" d="M2132.5,-84.82C2132.5,-102.17 2132.5,-125.8 2132.5,-125.8 2132.5,-125.8 1750.55,-125.8 1750.55,-125.8"/>
<polygon fill="black" stroke="black" points="1750.55,-122.3 1740.55,-125.8 1750.55,-129.3 1750.55,-122.3"/>
</g>
<!-- CategoryCard -->
<g id="node13" class="node">
<title>CategoryCard</title>
<polygon fill="#ffffb3" stroke="black" points="2108.03,-84.8 2013.97,-84.8 2013.97,-48.8 2108.03,-48.8 2108.03,-84.8"/>
<text text-anchor="middle" x="2061" y="-62.6" font-family="Times,serif" font-size="14.00">CategoryCard</text>
</g>
<!-- CategoryCard&#45;&gt;ComponentsModule -->
<g id="edge11" class="edge">
<title>CategoryCard&#45;&gt;ComponentsModule</title>
<path fill="none" stroke="black" d="M2018.36,-84.81C2018.36,-100.85 2018.36,-121.8 2018.36,-121.8 2018.36,-121.8 1750.39,-121.8 1750.39,-121.8"/>
<polygon fill="black" stroke="black" points="1750.39,-118.3 1740.39,-121.8 1750.39,-125.3 1750.39,-118.3"/>
</g>
<!-- CategoryComponent -->
<g id="node14" class="node">
<title>CategoryComponent</title>
<polygon fill="#ffffb3" stroke="black" points="1995.15,-84.8 1862.85,-84.8 1862.85,-48.8 1995.15,-48.8 1995.15,-84.8"/>
<text text-anchor="middle" x="1929" y="-62.6" font-family="Times,serif" font-size="14.00">CategoryComponent</text>
</g>
<!-- CategoryComponent&#45;&gt;ComponentsModule -->
<g id="edge12" class="edge">
<title>CategoryComponent&#45;&gt;ComponentsModule</title>
<path fill="none" stroke="black" d="M1953.19,-84.92C1953.19,-99.58 1953.19,-117.8 1953.19,-117.8 1953.19,-117.8 1750.22,-117.8 1750.22,-117.8"/>
<polygon fill="black" stroke="black" points="1750.22,-114.3 1740.22,-117.8 1750.22,-121.3 1750.22,-114.3"/>
</g>
<!-- FooterComponent -->
<g id="node15" class="node">
<title>FooterComponent</title>
<polygon fill="#ffffb3" stroke="black" points="1844.88,-84.8 1727.12,-84.8 1727.12,-48.8 1844.88,-48.8 1844.88,-84.8"/>
<text text-anchor="middle" x="1786" y="-62.6" font-family="Times,serif" font-size="14.00">FooterComponent</text>
</g>
<!-- FooterComponent&#45;&gt;ComponentsModule -->
<g id="edge13" class="edge">
<title>FooterComponent&#45;&gt;ComponentsModule</title>
<path fill="none" stroke="black" d="M1733.61,-84.91C1733.61,-84.91 1733.61,-103.79 1733.61,-103.79"/>
<polygon fill="black" stroke="black" points="1730.11,-103.79 1733.61,-113.79 1737.11,-103.79 1730.11,-103.79"/>
</g>
<!-- ItemCard -->
<g id="node16" class="node">
<title>ItemCard</title>
<polygon fill="#ffffb3" stroke="black" points="1709.37,-84.8 1640.63,-84.8 1640.63,-48.8 1709.37,-48.8 1709.37,-84.8"/>
<text text-anchor="middle" x="1675" y="-62.6" font-family="Times,serif" font-size="14.00">ItemCard</text>
</g>
<!-- ItemCard&#45;&gt;ComponentsModule -->
<g id="edge14" class="edge">
<title>ItemCard&#45;&gt;ComponentsModule</title>
<path fill="none" stroke="black" d="M1675,-84.91C1675,-84.91 1675,-103.79 1675,-103.79"/>
<polygon fill="black" stroke="black" points="1671.5,-103.79 1675,-113.79 1678.5,-103.79 1671.5,-103.79"/>
</g>
<!-- ItemComponent -->
<g id="node17" class="node">
<title>ItemComponent</title>
<polygon fill="#ffffb3" stroke="black" points="1622.49,-84.8 1515.51,-84.8 1515.51,-48.8 1622.49,-48.8 1622.49,-84.8"/>
<text text-anchor="middle" x="1569" y="-62.6" font-family="Times,serif" font-size="14.00">ItemComponent</text>
</g>
<!-- ItemComponent&#45;&gt;ComponentsModule -->
<g id="edge15" class="edge">
<title>ItemComponent&#45;&gt;ComponentsModule</title>
<path fill="none" stroke="black" d="M1616.16,-84.91C1616.16,-84.91 1616.16,-103.79 1616.16,-103.79"/>
<polygon fill="black" stroke="black" points="1612.66,-103.79 1616.16,-113.79 1619.66,-103.79 1612.66,-103.79"/>
</g>
<!-- NavbarComponent -->
<g id="node18" class="node">
<title>NavbarComponent</title>
<polygon fill="#ffffb3" stroke="black" points="1497.03,-84.8 1374.97,-84.8 1374.97,-48.8 1497.03,-48.8 1497.03,-84.8"/>
<text text-anchor="middle" x="1436" y="-62.6" font-family="Times,serif" font-size="14.00">NavbarComponent</text>
</g>
<!-- NavbarComponent&#45;&gt;ComponentsModule -->
<g id="edge16" class="edge">
<title>NavbarComponent&#45;&gt;ComponentsModule</title>
<path fill="none" stroke="black" d="M1453.59,-84.92C1453.59,-99.58 1453.59,-117.8 1453.59,-117.8 1453.59,-117.8 1599.77,-117.8 1599.77,-117.8"/>
<polygon fill="black" stroke="black" points="1599.77,-121.3 1609.77,-117.8 1599.77,-114.3 1599.77,-121.3"/>
</g>
<!-- PaymentComponent -->
<g id="node19" class="node">
<title>PaymentComponent</title>
<polygon fill="#ffffb3" stroke="black" points="1357.32,-84.8 1226.68,-84.8 1226.68,-48.8 1357.32,-48.8 1357.32,-84.8"/>
<text text-anchor="middle" x="1292" y="-62.6" font-family="Times,serif" font-size="14.00">PaymentComponent</text>
</g>
<!-- PaymentComponent&#45;&gt;ComponentsModule -->
<g id="edge17" class="edge">
<title>PaymentComponent&#45;&gt;ComponentsModule</title>
<path fill="none" stroke="black" d="M1353.04,-84.81C1353.04,-100.85 1353.04,-121.8 1353.04,-121.8 1353.04,-121.8 1599.46,-121.8 1599.46,-121.8"/>
<polygon fill="black" stroke="black" points="1599.46,-125.3 1609.46,-121.8 1599.46,-118.3 1599.46,-125.3"/>
</g>
<!-- SectionHeading -->
<g id="node20" class="node">
<title>SectionHeading</title>
<polygon fill="#ffffb3" stroke="black" points="1208.92,-84.8 1103.08,-84.8 1103.08,-48.8 1208.92,-48.8 1208.92,-84.8"/>
<text text-anchor="middle" x="1156" y="-62.6" font-family="Times,serif" font-size="14.00">SectionHeading</text>
</g>
<!-- SectionHeading&#45;&gt;ComponentsModule -->
<g id="edge18" class="edge">
<title>SectionHeading&#45;&gt;ComponentsModule</title>
<path fill="none" stroke="black" d="M1203.09,-84.82C1203.09,-102.17 1203.09,-125.8 1203.09,-125.8 1203.09,-125.8 1599.38,-125.8 1599.38,-125.8"/>
<polygon fill="black" stroke="black" points="1599.38,-129.3 1609.38,-125.8 1599.38,-122.3 1599.38,-129.3"/>
</g>
<!-- commentComponent -->
<g id="node21" class="node">
<title>commentComponent</title>
<polygon fill="#ffffb3" stroke="black" points="1085.93,-84.8 952.07,-84.8 952.07,-48.8 1085.93,-48.8 1085.93,-84.8"/>
<text text-anchor="middle" x="1019" y="-62.6" font-family="Times,serif" font-size="14.00">commentComponent</text>
</g>
<!-- commentComponent&#45;&gt;ComponentsModule -->
<g id="edge19" class="edge">
<title>commentComponent&#45;&gt;ComponentsModule</title>
<path fill="none" stroke="black" d="M1078.09,-85.02C1078.09,-103.63 1078.09,-129.8 1078.09,-129.8 1078.09,-129.8 1599.7,-129.8 1599.7,-129.8"/>
<polygon fill="black" stroke="black" points="1599.7,-133.3 1609.7,-129.8 1599.7,-126.3 1599.7,-133.3"/>
</g>
<!-- BlogPostCard  -->
<g id="node23" class="node">
<title>BlogPostCard </title>
<polygon fill="#fb8072" stroke="black" points="2309.07,-214.8 2210.93,-214.8 2210.93,-178.8 2309.07,-178.8 2309.07,-214.8"/>
<text text-anchor="middle" x="2260" y="-192.6" font-family="Times,serif" font-size="14.00">BlogPostCard </text>
</g>
<!-- ComponentsModule&#45;&gt;BlogPostCard  -->
<g id="edge20" class="edge">
<title>ComponentsModule&#45;&gt;BlogPostCard </title>
<path fill="none" stroke="black" stroke-dasharray="5,2" d="M1740.3,-133.8C1891.27,-133.8 2251.62,-133.8 2251.62,-133.8 2251.62,-133.8 2251.62,-168.58 2251.62,-168.58"/>
<polygon fill="black" stroke="black" points="2248.13,-168.58 2251.62,-178.58 2255.13,-168.58 2248.13,-168.58"/>
</g>
<!-- Cart  -->
<g id="node24" class="node">
<title>Cart </title>
<polygon fill="#fb8072" stroke="black" points="2193,-214.8 2139,-214.8 2139,-178.8 2193,-178.8 2193,-214.8"/>
<text text-anchor="middle" x="2166" y="-192.6" font-family="Times,serif" font-size="14.00">Cart </text>
</g>
<!-- ComponentsModule&#45;&gt;Cart  -->
<g id="edge21" class="edge">
<title>ComponentsModule&#45;&gt;Cart </title>
<path fill="none" stroke="black" stroke-dasharray="5,2" d="M1740.34,-137.8C1872.59,-137.8 2159.5,-137.8 2159.5,-137.8 2159.5,-137.8 2159.5,-168.78 2159.5,-168.78"/>
<polygon fill="black" stroke="black" points="2156,-168.78 2159.5,-178.78 2163,-168.78 2156,-168.78"/>
</g>
<!-- CategoryCard  -->
<g id="node25" class="node">
<title>CategoryCard </title>
<polygon fill="#fb8072" stroke="black" points="2121.03,-214.8 2022.97,-214.8 2022.97,-178.8 2121.03,-178.8 2121.03,-214.8"/>
<text text-anchor="middle" x="2072" y="-192.6" font-family="Times,serif" font-size="14.00">CategoryCard </text>
</g>
<!-- ComponentsModule&#45;&gt;CategoryCard  -->
<g id="edge22" class="edge">
<title>ComponentsModule&#45;&gt;CategoryCard </title>
<path fill="none" stroke="black" stroke-dasharray="5,2" d="M1740.38,-141.8C1851.58,-141.8 2065.62,-141.8 2065.62,-141.8 2065.62,-141.8 2065.62,-168.79 2065.62,-168.79"/>
<polygon fill="black" stroke="black" points="2062.13,-168.79 2065.62,-178.79 2069.13,-168.79 2062.13,-168.79"/>
</g>
<!-- CategoryComponent  -->
<g id="node26" class="node">
<title>CategoryComponent </title>
<polygon fill="#fb8072" stroke="black" points="2005.15,-214.8 1868.85,-214.8 1868.85,-178.8 2005.15,-178.8 2005.15,-214.8"/>
<text text-anchor="middle" x="1937" y="-192.6" font-family="Times,serif" font-size="14.00">CategoryComponent </text>
</g>
<!-- ComponentsModule&#45;&gt;CategoryComponent  -->
<g id="edge23" class="edge">
<title>ComponentsModule&#45;&gt;CategoryComponent </title>
<path fill="none" stroke="black" stroke-dasharray="5,2" d="M1740.44,-145.8C1810.3,-145.8 1911.06,-145.8 1911.06,-145.8 1911.06,-145.8 1911.06,-168.68 1911.06,-168.68"/>
<polygon fill="black" stroke="black" points="1907.56,-168.68 1911.06,-178.68 1914.56,-168.68 1907.56,-168.68"/>
</g>
<!-- FooterComponent  -->
<g id="node27" class="node">
<title>FooterComponent </title>
<polygon fill="#fb8072" stroke="black" points="1850.88,-214.8 1729.12,-214.8 1729.12,-178.8 1850.88,-178.8 1850.88,-214.8"/>
<text text-anchor="middle" x="1790" y="-192.6" font-family="Times,serif" font-size="14.00">FooterComponent </text>
</g>
<!-- ComponentsModule&#45;&gt;FooterComponent  -->
<g id="edge24" class="edge">
<title>ComponentsModule&#45;&gt;FooterComponent </title>
<path fill="none" stroke="black" stroke-dasharray="5,2" d="M1734.74,-149.91C1734.74,-149.91 1734.74,-168.79 1734.74,-168.79"/>
<polygon fill="black" stroke="black" points="1731.24,-168.79 1734.74,-178.79 1738.24,-168.79 1731.24,-168.79"/>
</g>
<!-- ItemCard  -->
<g id="node28" class="node">
<title>ItemCard </title>
<polygon fill="#fb8072" stroke="black" points="1711.37,-214.8 1638.63,-214.8 1638.63,-178.8 1711.37,-178.8 1711.37,-214.8"/>
<text text-anchor="middle" x="1675" y="-192.6" font-family="Times,serif" font-size="14.00">ItemCard </text>
</g>
<!-- ComponentsModule&#45;&gt;ItemCard  -->
<g id="edge25" class="edge">
<title>ComponentsModule&#45;&gt;ItemCard </title>
<path fill="none" stroke="black" stroke-dasharray="5,2" d="M1675,-149.91C1675,-149.91 1675,-168.79 1675,-168.79"/>
<polygon fill="black" stroke="black" points="1671.5,-168.79 1675,-178.79 1678.5,-168.79 1671.5,-168.79"/>
</g>
<!-- ItemComponent  -->
<g id="node29" class="node">
<title>ItemComponent </title>
<polygon fill="#fb8072" stroke="black" points="1621.49,-214.8 1510.51,-214.8 1510.51,-178.8 1621.49,-178.8 1621.49,-214.8"/>
<text text-anchor="middle" x="1566" y="-192.6" font-family="Times,serif" font-size="14.00">ItemComponent </text>
</g>
<!-- ComponentsModule&#45;&gt;ItemComponent  -->
<g id="edge26" class="edge">
<title>ComponentsModule&#45;&gt;ItemComponent </title>
<path fill="none" stroke="black" stroke-dasharray="5,2" d="M1615.54,-149.91C1615.54,-149.91 1615.54,-168.79 1615.54,-168.79"/>
<polygon fill="black" stroke="black" points="1612.04,-168.79 1615.54,-178.79 1619.04,-168.79 1612.04,-168.79"/>
</g>
<!-- NavbarComponent  -->
<g id="node30" class="node">
<title>NavbarComponent </title>
<polygon fill="#fb8072" stroke="black" points="1493.03,-214.8 1366.97,-214.8 1366.97,-178.8 1493.03,-178.8 1493.03,-214.8"/>
<text text-anchor="middle" x="1430" y="-192.6" font-family="Times,serif" font-size="14.00">NavbarComponent </text>
</g>
<!-- ComponentsModule&#45;&gt;NavbarComponent  -->
<g id="edge27" class="edge">
<title>ComponentsModule&#45;&gt;NavbarComponent </title>
<path fill="none" stroke="black" stroke-dasharray="5,2" d="M1609.52,-145.8C1532.25,-145.8 1414.16,-145.8 1414.16,-145.8 1414.16,-145.8 1414.16,-168.68 1414.16,-168.68"/>
<polygon fill="black" stroke="black" points="1410.66,-168.68 1414.16,-178.68 1417.66,-168.68 1410.66,-168.68"/>
</g>
<!-- PaymentComponent  -->
<g id="node31" class="node">
<title>PaymentComponent </title>
<polygon fill="#fb8072" stroke="black" points="1348.82,-214.8 1215.18,-214.8 1215.18,-178.8 1348.82,-178.8 1348.82,-214.8"/>
<text text-anchor="middle" x="1282" y="-192.6" font-family="Times,serif" font-size="14.00">PaymentComponent </text>
</g>
<!-- ComponentsModule&#45;&gt;PaymentComponent  -->
<g id="edge28" class="edge">
<title>ComponentsModule&#45;&gt;PaymentComponent </title>
<path fill="none" stroke="black" stroke-dasharray="5,2" d="M1609.77,-141.8C1499.44,-141.8 1287.88,-141.8 1287.88,-141.8 1287.88,-141.8 1287.88,-168.79 1287.88,-168.79"/>
<polygon fill="black" stroke="black" points="1284.38,-168.79 1287.88,-178.79 1291.38,-168.79 1284.38,-168.79"/>
</g>
<!-- SectionHeading  -->
<g id="node32" class="node">
<title>SectionHeading </title>
<polygon fill="#fb8072" stroke="black" points="1197.42,-214.8 1088.58,-214.8 1088.58,-178.8 1197.42,-178.8 1197.42,-214.8"/>
<text text-anchor="middle" x="1143" y="-192.6" font-family="Times,serif" font-size="14.00">SectionHeading </text>
</g>
<!-- ComponentsModule&#45;&gt;SectionHeading  -->
<g id="edge29" class="edge">
<title>ComponentsModule&#45;&gt;SectionHeading </title>
<path fill="none" stroke="black" stroke-dasharray="5,2" d="M1609.62,-137.8C1468.98,-137.8 1150.38,-137.8 1150.38,-137.8 1150.38,-137.8 1150.38,-168.78 1150.38,-168.78"/>
<polygon fill="black" stroke="black" points="1146.88,-168.78 1150.38,-178.78 1153.88,-168.78 1146.88,-168.78"/>
</g>
<!-- commentComponent  -->
<g id="node33" class="node">
<title>commentComponent </title>
<polygon fill="#fb8072" stroke="black" points="1070.43,-214.8 933.57,-214.8 933.57,-178.8 1070.43,-178.8 1070.43,-214.8"/>
<text text-anchor="middle" x="1002" y="-192.6" font-family="Times,serif" font-size="14.00">commentComponent </text>
</g>
<!-- ComponentsModule&#45;&gt;commentComponent  -->
<g id="edge30" class="edge">
<title>ComponentsModule&#45;&gt;commentComponent </title>
<path fill="none" stroke="black" stroke-dasharray="5,2" d="M1609.55,-133.8C1442.13,-133.8 1011.38,-133.8 1011.38,-133.8 1011.38,-133.8 1011.38,-168.58 1011.38,-168.58"/>
<polygon fill="black" stroke="black" points="1007.88,-168.58 1011.38,-178.58 1014.88,-168.58 1007.88,-168.58"/>
</g>
<!-- Home -->
<g id="node34" class="node">
<title>Home</title>
<polygon fill="#ffffb3" stroke="black" points="2415,-84.8 2361,-84.8 2361,-48.8 2415,-48.8 2415,-84.8"/>
<text text-anchor="middle" x="2388" y="-62.6" font-family="Times,serif" font-size="14.00">Home</text>
</g>
<!-- HomeModule -->
<g id="node35" class="node">
<title>HomeModule</title>
<polygon fill="#8dd3c7" stroke="black" points="2434.77,-149.8 2431.77,-153.8 2410.77,-153.8 2407.77,-149.8 2341.23,-149.8 2341.23,-113.8 2434.77,-113.8 2434.77,-149.8"/>
<text text-anchor="middle" x="2388" y="-127.6" font-family="Times,serif" font-size="14.00">HomeModule</text>
</g>
<!-- Home&#45;&gt;HomeModule -->
<g id="edge31" class="edge">
<title>Home&#45;&gt;HomeModule</title>
<path fill="none" stroke="black" d="M2388,-84.91C2388,-84.91 2388,-103.79 2388,-103.79"/>
<polygon fill="black" stroke="black" points="2384.5,-103.79 2388,-113.79 2391.5,-103.79 2384.5,-103.79"/>
</g>
<!-- Home  -->
<g id="node36" class="node">
<title>Home </title>
<polygon fill="#fb8072" stroke="black" points="2415,-214.8 2361,-214.8 2361,-178.8 2415,-178.8 2415,-214.8"/>
<text text-anchor="middle" x="2388" y="-192.6" font-family="Times,serif" font-size="14.00">Home </text>
</g>
<!-- HomeModule&#45;&gt;Home  -->
<g id="edge32" class="edge">
<title>HomeModule&#45;&gt;Home </title>
<path fill="none" stroke="black" stroke-dasharray="5,2" d="M2388,-149.91C2388,-149.91 2388,-168.79 2388,-168.79"/>
<polygon fill="black" stroke="black" points="2384.5,-168.79 2388,-178.79 2391.5,-168.79 2384.5,-168.79"/>
</g>
<!-- loginuser -->
<g id="node37" class="node">
<title>loginuser</title>
<polygon fill="#ffffb3" stroke="black" points="2553.1,-84.8 2484.9,-84.8 2484.9,-48.8 2553.1,-48.8 2553.1,-84.8"/>
<text text-anchor="middle" x="2519" y="-62.6" font-family="Times,serif" font-size="14.00">loginuser</text>
</g>
<!-- LoginUserModule -->
<g id="node38" class="node">
<title>LoginUserModule</title>
<polygon fill="#8dd3c7" stroke="black" points="2578.93,-149.8 2575.93,-153.8 2554.93,-153.8 2551.93,-149.8 2459.07,-149.8 2459.07,-113.8 2578.93,-113.8 2578.93,-149.8"/>
<text text-anchor="middle" x="2519" y="-127.6" font-family="Times,serif" font-size="14.00">LoginUserModule</text>
</g>
<!-- loginuser&#45;&gt;LoginUserModule -->
<g id="edge33" class="edge">
<title>loginuser&#45;&gt;LoginUserModule</title>
<path fill="none" stroke="black" d="M2519,-84.91C2519,-84.91 2519,-103.79 2519,-103.79"/>
<polygon fill="black" stroke="black" points="2515.5,-103.79 2519,-113.79 2522.5,-103.79 2515.5,-103.79"/>
</g>
<!-- loginuser  -->
<g id="node39" class="node">
<title>loginuser </title>
<polygon fill="#fb8072" stroke="black" points="2554.6,-214.8 2483.4,-214.8 2483.4,-178.8 2554.6,-178.8 2554.6,-214.8"/>
<text text-anchor="middle" x="2519" y="-192.6" font-family="Times,serif" font-size="14.00">loginuser </text>
</g>
<!-- LoginUserModule&#45;&gt;loginuser  -->
<g id="edge34" class="edge">
<title>LoginUserModule&#45;&gt;loginuser </title>
<path fill="none" stroke="black" stroke-dasharray="5,2" d="M2519,-149.91C2519,-149.91 2519,-168.79 2519,-168.79"/>
<polygon fill="black" stroke="black" points="2515.5,-168.79 2519,-178.79 2522.5,-168.79 2515.5,-168.79"/>
</g>
<!-- Orders -->
<g id="node40" class="node">
<title>Orders</title>
<polygon fill="#ffffb3" stroke="black" points="2679.1,-84.8 2624.9,-84.8 2624.9,-48.8 2679.1,-48.8 2679.1,-84.8"/>
<text text-anchor="middle" x="2652" y="-62.6" font-family="Times,serif" font-size="14.00">Orders</text>
</g>
<!-- OrdersModule -->
<g id="node41" class="node">
<title>OrdersModule</title>
<polygon fill="#8dd3c7" stroke="black" points="2700.65,-149.8 2697.65,-153.8 2676.65,-153.8 2673.65,-149.8 2603.35,-149.8 2603.35,-113.8 2700.65,-113.8 2700.65,-149.8"/>
<text text-anchor="middle" x="2652" y="-127.6" font-family="Times,serif" font-size="14.00">OrdersModule</text>
</g>
<!-- Orders&#45;&gt;OrdersModule -->
<g id="edge35" class="edge">
<title>Orders&#45;&gt;OrdersModule</title>
<path fill="none" stroke="black" d="M2652,-84.91C2652,-84.91 2652,-103.79 2652,-103.79"/>
<polygon fill="black" stroke="black" points="2648.5,-103.79 2652,-113.79 2655.5,-103.79 2648.5,-103.79"/>
</g>
<!-- Orders  -->
<g id="node42" class="node">
<title>Orders </title>
<polygon fill="#fb8072" stroke="black" points="2680.6,-214.8 2623.4,-214.8 2623.4,-178.8 2680.6,-178.8 2680.6,-214.8"/>
<text text-anchor="middle" x="2652" y="-192.6" font-family="Times,serif" font-size="14.00">Orders </text>
</g>
<!-- OrdersModule&#45;&gt;Orders  -->
<g id="edge36" class="edge">
<title>OrdersModule&#45;&gt;Orders </title>
<path fill="none" stroke="black" stroke-dasharray="5,2" d="M2652,-149.91C2652,-149.91 2652,-168.79 2652,-168.79"/>
<polygon fill="black" stroke="black" points="2648.5,-168.79 2652,-178.79 2655.5,-168.79 2648.5,-168.79"/>
</g>
<!-- pay -->
<g id="node43" class="node">
<title>pay</title>
<polygon fill="#ffffb3" stroke="black" points="2792,-84.8 2738,-84.8 2738,-48.8 2792,-48.8 2792,-84.8"/>
<text text-anchor="middle" x="2765" y="-62.6" font-family="Times,serif" font-size="14.00">pay</text>
</g>
<!-- PayModule -->
<g id="node44" class="node">
<title>PayModule</title>
<polygon fill="#8dd3c7" stroke="black" points="2805.05,-149.8 2802.05,-153.8 2781.05,-153.8 2778.05,-149.8 2724.95,-149.8 2724.95,-113.8 2805.05,-113.8 2805.05,-149.8"/>
<text text-anchor="middle" x="2765" y="-127.6" font-family="Times,serif" font-size="14.00">PayModule</text>
</g>
<!-- pay&#45;&gt;PayModule -->
<g id="edge37" class="edge">
<title>pay&#45;&gt;PayModule</title>
<path fill="none" stroke="black" d="M2765,-84.91C2765,-84.91 2765,-103.79 2765,-103.79"/>
<polygon fill="black" stroke="black" points="2761.5,-103.79 2765,-113.79 2768.5,-103.79 2761.5,-103.79"/>
</g>
<!-- pay  -->
<g id="node45" class="node">
<title>pay </title>
<polygon fill="#fb8072" stroke="black" points="2792,-214.8 2738,-214.8 2738,-178.8 2792,-178.8 2792,-214.8"/>
<text text-anchor="middle" x="2765" y="-192.6" font-family="Times,serif" font-size="14.00">pay </text>
</g>
<!-- PayModule&#45;&gt;pay  -->
<g id="edge38" class="edge">
<title>PayModule&#45;&gt;pay </title>
<path fill="none" stroke="black" stroke-dasharray="5,2" d="M2765,-149.91C2765,-149.91 2765,-168.79 2765,-168.79"/>
<polygon fill="black" stroke="black" points="2761.5,-168.79 2765,-178.79 2768.5,-168.79 2761.5,-168.79"/>
</g>
<!-- product -->
<g id="node46" class="node">
<title>product</title>
<polygon fill="#ffffb3" stroke="black" points="2910.27,-84.8 2851.73,-84.8 2851.73,-48.8 2910.27,-48.8 2910.27,-84.8"/>
<text text-anchor="middle" x="2881" y="-62.6" font-family="Times,serif" font-size="14.00">product</text>
</g>
<!-- ProductModule -->
<g id="node47" class="node">
<title>ProductModule</title>
<polygon fill="#8dd3c7" stroke="black" points="2932.6,-149.8 2929.6,-153.8 2908.6,-153.8 2905.6,-149.8 2829.4,-149.8 2829.4,-113.8 2932.6,-113.8 2932.6,-149.8"/>
<text text-anchor="middle" x="2881" y="-127.6" font-family="Times,serif" font-size="14.00">ProductModule</text>
</g>
<!-- product&#45;&gt;ProductModule -->
<g id="edge39" class="edge">
<title>product&#45;&gt;ProductModule</title>
<path fill="none" stroke="black" d="M2881,-84.91C2881,-84.91 2881,-103.79 2881,-103.79"/>
<polygon fill="black" stroke="black" points="2877.5,-103.79 2881,-113.79 2884.5,-103.79 2877.5,-103.79"/>
</g>
<!-- product  -->
<g id="node48" class="node">
<title>product </title>
<polygon fill="#fb8072" stroke="black" points="2912.27,-214.8 2849.73,-214.8 2849.73,-178.8 2912.27,-178.8 2912.27,-214.8"/>
<text text-anchor="middle" x="2881" y="-192.6" font-family="Times,serif" font-size="14.00">product </text>
</g>
<!-- ProductModule&#45;&gt;product  -->
<g id="edge40" class="edge">
<title>ProductModule&#45;&gt;product </title>
<path fill="none" stroke="black" stroke-dasharray="5,2" d="M2881,-149.91C2881,-149.91 2881,-168.79 2881,-168.79"/>
<polygon fill="black" stroke="black" points="2877.5,-168.79 2881,-178.79 2884.5,-168.79 2877.5,-168.79"/>
</g>
<!-- products -->
<g id="node49" class="node">
<title>products</title>
<polygon fill="#ffffb3" stroke="black" points="3043.21,-84.8 2978.79,-84.8 2978.79,-48.8 3043.21,-48.8 3043.21,-84.8"/>
<text text-anchor="middle" x="3011" y="-62.6" font-family="Times,serif" font-size="14.00">products</text>
</g>
<!-- ProductsModule -->
<g id="node50" class="node">
<title>ProductsModule</title>
<polygon fill="#8dd3c7" stroke="black" points="3065.05,-149.8 3062.05,-153.8 3041.05,-153.8 3038.05,-149.8 2956.95,-149.8 2956.95,-113.8 3065.05,-113.8 3065.05,-149.8"/>
<text text-anchor="middle" x="3011" y="-127.6" font-family="Times,serif" font-size="14.00">ProductsModule</text>
</g>
<!-- products&#45;&gt;ProductsModule -->
<g id="edge41" class="edge">
<title>products&#45;&gt;ProductsModule</title>
<path fill="none" stroke="black" d="M3011,-84.91C3011,-84.91 3011,-103.79 3011,-103.79"/>
<polygon fill="black" stroke="black" points="3007.5,-103.79 3011,-113.79 3014.5,-103.79 3007.5,-103.79"/>
</g>
<!-- products  -->
<g id="node51" class="node">
<title>products </title>
<polygon fill="#fb8072" stroke="black" points="3044.71,-214.8 2977.29,-214.8 2977.29,-178.8 3044.71,-178.8 3044.71,-214.8"/>
<text text-anchor="middle" x="3011" y="-192.6" font-family="Times,serif" font-size="14.00">products </text>
</g>
<!-- ProductsModule&#45;&gt;products  -->
<g id="edge42" class="edge">
<title>ProductsModule&#45;&gt;products </title>
<path fill="none" stroke="black" stroke-dasharray="5,2" d="M3011,-149.91C3011,-149.91 3011,-168.79 3011,-168.79"/>
<polygon fill="black" stroke="black" points="3007.5,-168.79 3011,-178.79 3014.5,-168.79 3007.5,-168.79"/>
</g>
<!-- register -->
<g id="node52" class="node">
<title>register</title>
<polygon fill="#ffffb3" stroke="black" points="3170.98,-84.8 3113.02,-84.8 3113.02,-48.8 3170.98,-48.8 3170.98,-84.8"/>
<text text-anchor="middle" x="3142" y="-62.6" font-family="Times,serif" font-size="14.00">register</text>
</g>
<!-- RegisterModule -->
<g id="node53" class="node">
<title>RegisterModule</title>
<polygon fill="#8dd3c7" stroke="black" points="3195.21,-149.8 3192.21,-153.8 3171.21,-153.8 3168.21,-149.8 3088.79,-149.8 3088.79,-113.8 3195.21,-113.8 3195.21,-149.8"/>
<text text-anchor="middle" x="3142" y="-127.6" font-family="Times,serif" font-size="14.00">RegisterModule</text>
</g>
<!-- register&#45;&gt;RegisterModule -->
<g id="edge43" class="edge">
<title>register&#45;&gt;RegisterModule</title>
<path fill="none" stroke="black" d="M3142,-84.91C3142,-84.91 3142,-103.79 3142,-103.79"/>
<polygon fill="black" stroke="black" points="3138.5,-103.79 3142,-113.79 3145.5,-103.79 3138.5,-103.79"/>
</g>
<!-- register  -->
<g id="node54" class="node">
<title>register </title>
<polygon fill="#fb8072" stroke="black" points="3172.98,-214.8 3111.02,-214.8 3111.02,-178.8 3172.98,-178.8 3172.98,-214.8"/>
<text text-anchor="middle" x="3142" y="-192.6" font-family="Times,serif" font-size="14.00">register </text>
</g>
<!-- RegisterModule&#45;&gt;register  -->
<g id="edge44" class="edge">
<title>RegisterModule&#45;&gt;register </title>
<path fill="none" stroke="black" stroke-dasharray="5,2" d="M3142,-149.91C3142,-149.91 3142,-168.79 3142,-168.79"/>
<polygon fill="black" stroke="black" points="3138.5,-168.79 3142,-178.79 3145.5,-168.79 3138.5,-168.79"/>
</g>
</g>
</svg>
