<?xml version="1.0" encoding="UTF-8" standalone="no"?>
<!DOCTYPE svg PUBLIC "-//W3C//DTD SVG 1.1//EN"
 "http://www.w3.org/Graphics/SVG/1.1/DTD/svg11.dtd">
<!-- Generated by graphviz version 5.0.0 (20220707.1540)
 -->
<!-- Title: dependencies Pages: 1 -->
<svg width="144pt" height="247pt"
 viewBox="0.00 0.00 144.00 246.80" xmlns="http://www.w3.org/2000/svg" xmlns:xlink="http://www.w3.org/1999/xlink">
<g id="graph0" class="graph" transform="scale(1 1) rotate(0) translate(4 242.8)">
<title>dependencies</title>
<polygon fill="white" stroke="transparent" points="-4,4 -4,-242.8 140,-242.8 140,4 -4,4"/>
<text text-anchor="middle" x="68" y="-8.2" font-family="sans-serif" font-size="14.00">dependencies</text>
<g id="clust1" class="cluster">
<title>cluster_ProductModule</title>
<polygon fill="none" stroke="black" stroke-dasharray="1,5" points="8,-32.8 8,-230.8 128,-230.8 128,-32.8 8,-32.8"/>
</g>
<g id="clust2" class="cluster">
<title>cluster_ProductModule_declarations</title>
<polygon fill="none" stroke="black" points="31,-40.8 31,-92.8 105,-92.8 105,-40.8 31,-40.8"/>
</g>
<g id="clust5" class="cluster">
<title>cluster_ProductModule_exports</title>
<polygon fill="none" stroke="black" points="29,-170.8 29,-222.8 107,-222.8 107,-170.8 29,-170.8"/>
</g>
<!-- product -->
<g id="node1" class="node">
<title>product</title>
<polygon fill="#ffffb3" stroke="black" points="97.27,-84.8 38.73,-84.8 38.73,-48.8 97.27,-48.8 97.27,-84.8"/>
<text text-anchor="middle" x="68" y="-62.6" font-family="Times,serif" font-size="14.00">product</text>
</g>
<!-- ProductModule -->
<g id="node2" class="node">
<title>ProductModule</title>
<polygon fill="#8dd3c7" stroke="black" points="119.6,-149.8 116.6,-153.8 95.6,-153.8 92.6,-149.8 16.4,-149.8 16.4,-113.8 119.6,-113.8 119.6,-149.8"/>
<text text-anchor="middle" x="68" y="-127.6" font-family="Times,serif" font-size="14.00">ProductModule</text>
</g>
<!-- product&#45;&gt;ProductModule -->
<g id="edge1" class="edge">
<title>product&#45;&gt;ProductModule</title>
<path fill="none" stroke="black" d="M68,-84.91C68,-84.91 68,-103.79 68,-103.79"/>
<polygon fill="black" stroke="black" points="64.5,-103.79 68,-113.79 71.5,-103.79 64.5,-103.79"/>
</g>
<!-- product  -->
<g id="node3" class="node">
<title>product </title>
<polygon fill="#fb8072" stroke="black" points="99.27,-214.8 36.73,-214.8 36.73,-178.8 99.27,-178.8 99.27,-214.8"/>
<text text-anchor="middle" x="68" y="-192.6" font-family="Times,serif" font-size="14.00">product </text>
</g>
<!-- ProductModule&#45;&gt;product  -->
<g id="edge2" class="edge">
<title>ProductModule&#45;&gt;product </title>
<path fill="none" stroke="black" stroke-dasharray="5,2" d="M68,-149.91C68,-149.91 68,-168.79 68,-168.79"/>
<polygon fill="black" stroke="black" points="64.5,-168.79 68,-178.79 71.5,-168.79 64.5,-168.79"/>
</g>
</g>
</svg>
