<?xml version="1.0" encoding="UTF-8" standalone="no"?>
<!DOCTYPE svg PUBLIC "-//W3C//DTD SVG 1.1//EN"
 "http://www.w3.org/Graphics/SVG/1.1/DTD/svg11.dtd">
<!-- Generated by graphviz version 5.0.0 (20220707.1540)
 -->
<!-- Title: dependencies Pages: 1 -->
<svg width="138pt" height="247pt"
 viewBox="0.00 0.00 138.00 246.80" xmlns="http://www.w3.org/2000/svg" xmlns:xlink="http://www.w3.org/1999/xlink">
<g id="graph0" class="graph" transform="scale(1 1) rotate(0) translate(4 242.8)">
<title>dependencies</title>
<polygon fill="white" stroke="transparent" points="-4,4 -4,-242.8 134,-242.8 134,4 -4,4"/>
<text text-anchor="middle" x="65" y="-8.2" font-family="sans-serif" font-size="14.00">dependencies</text>
<g id="clust1" class="cluster">
<title>cluster_BasketModule</title>
<polygon fill="none" stroke="black" stroke-dasharray="1,5" points="8,-32.8 8,-230.8 122,-230.8 122,-32.8 8,-32.8"/>
</g>
<g id="clust2" class="cluster">
<title>cluster_BasketModule_declarations</title>
<polygon fill="none" stroke="black" points="30,-40.8 30,-92.8 100,-92.8 100,-40.8 30,-40.8"/>
</g>
<g id="clust5" class="cluster">
<title>cluster_BasketModule_exports</title>
<polygon fill="none" stroke="black" points="29,-170.8 29,-222.8 101,-222.8 101,-170.8 29,-170.8"/>
</g>
<!-- basket -->
<g id="node1" class="node">
<title>basket</title>
<polygon fill="#ffffb3" stroke="black" points="92,-84.8 38,-84.8 38,-48.8 92,-48.8 92,-84.8"/>
<text text-anchor="middle" x="65" y="-62.6" font-family="Times,serif" font-size="14.00">basket</text>
</g>
<!-- BasketModule -->
<g id="node2" class="node">
<title>BasketModule</title>
<polygon fill="#8dd3c7" stroke="black" points="113.66,-149.8 110.66,-153.8 89.66,-153.8 86.66,-149.8 16.34,-149.8 16.34,-113.8 113.66,-113.8 113.66,-149.8"/>
<text text-anchor="middle" x="65" y="-127.6" font-family="Times,serif" font-size="14.00">BasketModule</text>
</g>
<!-- basket&#45;&gt;BasketModule -->
<g id="edge1" class="edge">
<title>basket&#45;&gt;BasketModule</title>
<path fill="none" stroke="black" d="M65,-84.91C65,-84.91 65,-103.79 65,-103.79"/>
<polygon fill="black" stroke="black" points="61.5,-103.79 65,-113.79 68.5,-103.79 61.5,-103.79"/>
</g>
<!-- basket  -->
<g id="node3" class="node">
<title>basket </title>
<polygon fill="#fb8072" stroke="black" points="92.77,-214.8 37.23,-214.8 37.23,-178.8 92.77,-178.8 92.77,-214.8"/>
<text text-anchor="middle" x="65" y="-192.6" font-family="Times,serif" font-size="14.00">basket </text>
</g>
<!-- BasketModule&#45;&gt;basket  -->
<g id="edge2" class="edge">
<title>BasketModule&#45;&gt;basket </title>
<path fill="none" stroke="black" stroke-dasharray="5,2" d="M65,-149.91C65,-149.91 65,-168.79 65,-168.79"/>
<polygon fill="black" stroke="black" points="61.5,-168.79 65,-178.79 68.5,-168.79 61.5,-168.79"/>
</g>
</g>
</svg>
