<?xml version="1.0" encoding="UTF-8" standalone="no"?>
<!DOCTYPE svg PUBLIC "-//W3C//DTD SVG 1.1//EN"
 "http://www.w3.org/Graphics/SVG/1.1/DTD/svg11.dtd">
<!-- Generated by graphviz version 5.0.0 (20220707.1540)
 -->
<!-- Title: dependencies Pages: 1 -->
<svg width="146pt" height="247pt"
 viewBox="0.00 0.00 146.00 246.80" xmlns="http://www.w3.org/2000/svg" xmlns:xlink="http://www.w3.org/1999/xlink">
<g id="graph0" class="graph" transform="scale(1 1) rotate(0) translate(4 242.8)">
<title>dependencies</title>
<polygon fill="white" stroke="transparent" points="-4,4 -4,-242.8 142,-242.8 142,4 -4,4"/>
<text text-anchor="middle" x="69" y="-8.2" font-family="sans-serif" font-size="14.00">dependencies</text>
<g id="clust1" class="cluster">
<title>cluster_RegisterModule</title>
<polygon fill="none" stroke="black" stroke-dasharray="1,5" points="8,-32.8 8,-230.8 130,-230.8 130,-32.8 8,-32.8"/>
</g>
<g id="clust5" class="cluster">
<title>cluster_RegisterModule_exports</title>
<polygon fill="none" stroke="black" points="30,-170.8 30,-222.8 108,-222.8 108,-170.8 30,-170.8"/>
</g>
<g id="clust2" class="cluster">
<title>cluster_RegisterModule_declarations</title>
<polygon fill="none" stroke="black" points="32,-40.8 32,-92.8 106,-92.8 106,-40.8 32,-40.8"/>
</g>
<!-- register -->
<g id="node1" class="node">
<title>register</title>
<polygon fill="#ffffb3" stroke="black" points="97.98,-84.8 40.02,-84.8 40.02,-48.8 97.98,-48.8 97.98,-84.8"/>
<text text-anchor="middle" x="69" y="-62.6" font-family="Times,serif" font-size="14.00">register</text>
</g>
<!-- RegisterModule -->
<g id="node2" class="node">
<title>RegisterModule</title>
<polygon fill="#8dd3c7" stroke="black" points="122.21,-149.8 119.21,-153.8 98.21,-153.8 95.21,-149.8 15.79,-149.8 15.79,-113.8 122.21,-113.8 122.21,-149.8"/>
<text text-anchor="middle" x="69" y="-127.6" font-family="Times,serif" font-size="14.00">RegisterModule</text>
</g>
<!-- register&#45;&gt;RegisterModule -->
<g id="edge1" class="edge">
<title>register&#45;&gt;RegisterModule</title>
<path fill="none" stroke="black" d="M69,-84.91C69,-84.91 69,-103.79 69,-103.79"/>
<polygon fill="black" stroke="black" points="65.5,-103.79 69,-113.79 72.5,-103.79 65.5,-103.79"/>
</g>
<!-- register  -->
<g id="node3" class="node">
<title>register </title>
<polygon fill="#fb8072" stroke="black" points="99.98,-214.8 38.02,-214.8 38.02,-178.8 99.98,-178.8 99.98,-214.8"/>
<text text-anchor="middle" x="69" y="-192.6" font-family="Times,serif" font-size="14.00">register </text>
</g>
<!-- RegisterModule&#45;&gt;register  -->
<g id="edge2" class="edge">
<title>RegisterModule&#45;&gt;register </title>
<path fill="none" stroke="black" stroke-dasharray="5,2" d="M69,-149.91C69,-149.91 69,-168.79 69,-168.79"/>
<polygon fill="black" stroke="black" points="65.5,-168.79 69,-178.79 72.5,-168.79 65.5,-168.79"/>
</g>
</g>
</svg>
