<?xml version="1.0" encoding="UTF-8" standalone="no"?>
<!DOCTYPE svg PUBLIC "-//W3C//DTD SVG 1.1//EN"
 "http://www.w3.org/Graphics/SVG/1.1/DTD/svg11.dtd">
<!-- Generated by graphviz version 5.0.0 (20220707.1540)
 -->
<!-- Title: dependencies Pages: 1 -->
<svg width="1431pt" height="247pt"
 viewBox="0.00 0.00 1431.00 246.80" xmlns="http://www.w3.org/2000/svg" xmlns:xlink="http://www.w3.org/1999/xlink">
<g id="graph0" class="graph" transform="scale(1 1) rotate(0) translate(4 242.8)">
<title>dependencies</title>
<polygon fill="white" stroke="transparent" points="-4,4 -4,-242.8 1427,-242.8 1427,4 -4,4"/>
<text text-anchor="middle" x="711.5" y="-8.2" font-family="sans-serif" font-size="14.00">dependencies</text>
<g id="clust1" class="cluster">
<title>cluster_ComponentsModule</title>
<polygon fill="none" stroke="black" stroke-dasharray="1,5" points="8,-32.8 8,-230.8 1415,-230.8 1415,-32.8 8,-32.8"/>
</g>
<g id="clust2" class="cluster">
<title>cluster_ComponentsModule_declarations</title>
<polygon fill="none" stroke="black" points="34,-40.8 34,-92.8 1390,-92.8 1390,-40.8 34,-40.8"/>
</g>
<g id="clust15" class="cluster">
<title>cluster_ComponentsModule_exports</title>
<polygon fill="none" stroke="black" points="16,-170.8 16,-222.8 1407,-222.8 1407,-170.8 16,-170.8"/>
</g>
<!-- BlogPostCard -->
<g id="node1" class="node">
<title>BlogPostCard</title>
<polygon fill="#ffffb3" stroke="black" points="1382.07,-84.8 1287.93,-84.8 1287.93,-48.8 1382.07,-48.8 1382.07,-84.8"/>
<text text-anchor="middle" x="1335" y="-62.6" font-family="Times,serif" font-size="14.00">BlogPostCard</text>
</g>
<!-- ComponentsModule -->
<g id="node12" class="node">
<title>ComponentsModule</title>
<polygon fill="#8dd3c7" stroke="black" points="830.33,-149.8 827.33,-153.8 806.33,-153.8 803.33,-149.8 699.67,-149.8 699.67,-113.8 830.33,-113.8 830.33,-149.8"/>
<text text-anchor="middle" x="765" y="-127.6" font-family="Times,serif" font-size="14.00">ComponentsModule</text>
</g>
<!-- BlogPostCard&#45;&gt;ComponentsModule -->
<g id="edge1" class="edge">
<title>BlogPostCard&#45;&gt;ComponentsModule</title>
<path fill="none" stroke="black" d="M1294.34,-85.02C1294.34,-103.63 1294.34,-129.8 1294.34,-129.8 1294.34,-129.8 840.17,-129.8 840.17,-129.8"/>
<polygon fill="black" stroke="black" points="840.17,-126.3 830.17,-129.8 840.17,-133.3 840.17,-126.3"/>
</g>
<!-- Cart -->
<g id="node2" class="node">
<title>Cart</title>
<polygon fill="#ffffb3" stroke="black" points="1270,-84.8 1216,-84.8 1216,-48.8 1270,-48.8 1270,-84.8"/>
<text text-anchor="middle" x="1243" y="-62.6" font-family="Times,serif" font-size="14.00">Cart</text>
</g>
<!-- Cart&#45;&gt;ComponentsModule -->
<g id="edge2" class="edge">
<title>Cart&#45;&gt;ComponentsModule</title>
<path fill="none" stroke="black" d="M1222.5,-84.82C1222.5,-102.17 1222.5,-125.8 1222.5,-125.8 1222.5,-125.8 840.55,-125.8 840.55,-125.8"/>
<polygon fill="black" stroke="black" points="840.55,-122.3 830.55,-125.8 840.55,-129.3 840.55,-122.3"/>
</g>
<!-- CategoryCard -->
<g id="node3" class="node">
<title>CategoryCard</title>
<polygon fill="#ffffb3" stroke="black" points="1198.03,-84.8 1103.97,-84.8 1103.97,-48.8 1198.03,-48.8 1198.03,-84.8"/>
<text text-anchor="middle" x="1151" y="-62.6" font-family="Times,serif" font-size="14.00">CategoryCard</text>
</g>
<!-- CategoryCard&#45;&gt;ComponentsModule -->
<g id="edge3" class="edge">
<title>CategoryCard&#45;&gt;ComponentsModule</title>
<path fill="none" stroke="black" d="M1108.36,-84.81C1108.36,-100.85 1108.36,-121.8 1108.36,-121.8 1108.36,-121.8 840.39,-121.8 840.39,-121.8"/>
<polygon fill="black" stroke="black" points="840.39,-118.3 830.39,-121.8 840.39,-125.3 840.39,-118.3"/>
</g>
<!-- CategoryComponent -->
<g id="node4" class="node">
<title>CategoryComponent</title>
<polygon fill="#ffffb3" stroke="black" points="1085.15,-84.8 952.85,-84.8 952.85,-48.8 1085.15,-48.8 1085.15,-84.8"/>
<text text-anchor="middle" x="1019" y="-62.6" font-family="Times,serif" font-size="14.00">CategoryComponent</text>
</g>
<!-- CategoryComponent&#45;&gt;ComponentsModule -->
<g id="edge4" class="edge">
<title>CategoryComponent&#45;&gt;ComponentsModule</title>
<path fill="none" stroke="black" d="M1043.19,-84.92C1043.19,-99.58 1043.19,-117.8 1043.19,-117.8 1043.19,-117.8 840.22,-117.8 840.22,-117.8"/>
<polygon fill="black" stroke="black" points="840.22,-114.3 830.22,-117.8 840.22,-121.3 840.22,-114.3"/>
</g>
<!-- FooterComponent -->
<g id="node5" class="node">
<title>FooterComponent</title>
<polygon fill="#ffffb3" stroke="black" points="934.88,-84.8 817.12,-84.8 817.12,-48.8 934.88,-48.8 934.88,-84.8"/>
<text text-anchor="middle" x="876" y="-62.6" font-family="Times,serif" font-size="14.00">FooterComponent</text>
</g>
<!-- FooterComponent&#45;&gt;ComponentsModule -->
<g id="edge5" class="edge">
<title>FooterComponent&#45;&gt;ComponentsModule</title>
<path fill="none" stroke="black" d="M823.61,-84.91C823.61,-84.91 823.61,-103.79 823.61,-103.79"/>
<polygon fill="black" stroke="black" points="820.11,-103.79 823.61,-113.79 827.11,-103.79 820.11,-103.79"/>
</g>
<!-- ItemCard -->
<g id="node6" class="node">
<title>ItemCard</title>
<polygon fill="#ffffb3" stroke="black" points="799.37,-84.8 730.63,-84.8 730.63,-48.8 799.37,-48.8 799.37,-84.8"/>
<text text-anchor="middle" x="765" y="-62.6" font-family="Times,serif" font-size="14.00">ItemCard</text>
</g>
<!-- ItemCard&#45;&gt;ComponentsModule -->
<g id="edge6" class="edge">
<title>ItemCard&#45;&gt;ComponentsModule</title>
<path fill="none" stroke="black" d="M765,-84.91C765,-84.91 765,-103.79 765,-103.79"/>
<polygon fill="black" stroke="black" points="761.5,-103.79 765,-113.79 768.5,-103.79 761.5,-103.79"/>
</g>
<!-- ItemComponent -->
<g id="node7" class="node">
<title>ItemComponent</title>
<polygon fill="#ffffb3" stroke="black" points="712.49,-84.8 605.51,-84.8 605.51,-48.8 712.49,-48.8 712.49,-84.8"/>
<text text-anchor="middle" x="659" y="-62.6" font-family="Times,serif" font-size="14.00">ItemComponent</text>
</g>
<!-- ItemComponent&#45;&gt;ComponentsModule -->
<g id="edge7" class="edge">
<title>ItemComponent&#45;&gt;ComponentsModule</title>
<path fill="none" stroke="black" d="M706.16,-84.91C706.16,-84.91 706.16,-103.79 706.16,-103.79"/>
<polygon fill="black" stroke="black" points="702.66,-103.79 706.16,-113.79 709.66,-103.79 702.66,-103.79"/>
</g>
<!-- NavbarComponent -->
<g id="node8" class="node">
<title>NavbarComponent</title>
<polygon fill="#ffffb3" stroke="black" points="587.03,-84.8 464.97,-84.8 464.97,-48.8 587.03,-48.8 587.03,-84.8"/>
<text text-anchor="middle" x="526" y="-62.6" font-family="Times,serif" font-size="14.00">NavbarComponent</text>
</g>
<!-- NavbarComponent&#45;&gt;ComponentsModule -->
<g id="edge8" class="edge">
<title>NavbarComponent&#45;&gt;ComponentsModule</title>
<path fill="none" stroke="black" d="M543.59,-84.92C543.59,-99.58 543.59,-117.8 543.59,-117.8 543.59,-117.8 689.77,-117.8 689.77,-117.8"/>
<polygon fill="black" stroke="black" points="689.77,-121.3 699.77,-117.8 689.77,-114.3 689.77,-121.3"/>
</g>
<!-- PaymentComponent -->
<g id="node9" class="node">
<title>PaymentComponent</title>
<polygon fill="#ffffb3" stroke="black" points="447.32,-84.8 316.68,-84.8 316.68,-48.8 447.32,-48.8 447.32,-84.8"/>
<text text-anchor="middle" x="382" y="-62.6" font-family="Times,serif" font-size="14.00">PaymentComponent</text>
</g>
<!-- PaymentComponent&#45;&gt;ComponentsModule -->
<g id="edge9" class="edge">
<title>PaymentComponent&#45;&gt;ComponentsModule</title>
<path fill="none" stroke="black" d="M443.04,-84.81C443.04,-100.85 443.04,-121.8 443.04,-121.8 443.04,-121.8 689.46,-121.8 689.46,-121.8"/>
<polygon fill="black" stroke="black" points="689.46,-125.3 699.46,-121.8 689.46,-118.3 689.46,-125.3"/>
</g>
<!-- SectionHeading -->
<g id="node10" class="node">
<title>SectionHeading</title>
<polygon fill="#ffffb3" stroke="black" points="298.92,-84.8 193.08,-84.8 193.08,-48.8 298.92,-48.8 298.92,-84.8"/>
<text text-anchor="middle" x="246" y="-62.6" font-family="Times,serif" font-size="14.00">SectionHeading</text>
</g>
<!-- SectionHeading&#45;&gt;ComponentsModule -->
<g id="edge10" class="edge">
<title>SectionHeading&#45;&gt;ComponentsModule</title>
<path fill="none" stroke="black" d="M293.09,-84.82C293.09,-102.17 293.09,-125.8 293.09,-125.8 293.09,-125.8 689.38,-125.8 689.38,-125.8"/>
<polygon fill="black" stroke="black" points="689.38,-129.3 699.38,-125.8 689.38,-122.3 689.38,-129.3"/>
</g>
<!-- commentComponent -->
<g id="node11" class="node">
<title>commentComponent</title>
<polygon fill="#ffffb3" stroke="black" points="175.93,-84.8 42.07,-84.8 42.07,-48.8 175.93,-48.8 175.93,-84.8"/>
<text text-anchor="middle" x="109" y="-62.6" font-family="Times,serif" font-size="14.00">commentComponent</text>
</g>
<!-- commentComponent&#45;&gt;ComponentsModule -->
<g id="edge11" class="edge">
<title>commentComponent&#45;&gt;ComponentsModule</title>
<path fill="none" stroke="black" d="M168.09,-85.02C168.09,-103.63 168.09,-129.8 168.09,-129.8 168.09,-129.8 689.7,-129.8 689.7,-129.8"/>
<polygon fill="black" stroke="black" points="689.7,-133.3 699.7,-129.8 689.7,-126.3 689.7,-133.3"/>
</g>
<!-- BlogPostCard  -->
<g id="node13" class="node">
<title>BlogPostCard </title>
<polygon fill="#fb8072" stroke="black" points="1399.07,-214.8 1300.93,-214.8 1300.93,-178.8 1399.07,-178.8 1399.07,-214.8"/>
<text text-anchor="middle" x="1350" y="-192.6" font-family="Times,serif" font-size="14.00">BlogPostCard </text>
</g>
<!-- ComponentsModule&#45;&gt;BlogPostCard  -->
<g id="edge12" class="edge">
<title>ComponentsModule&#45;&gt;BlogPostCard </title>
<path fill="none" stroke="black" stroke-dasharray="5,2" d="M830.3,-133.8C981.27,-133.8 1341.62,-133.8 1341.62,-133.8 1341.62,-133.8 1341.62,-168.58 1341.62,-168.58"/>
<polygon fill="black" stroke="black" points="1338.13,-168.58 1341.62,-178.58 1345.13,-168.58 1338.13,-168.58"/>
</g>
<!-- Cart  -->
<g id="node14" class="node">
<title>Cart </title>
<polygon fill="#fb8072" stroke="black" points="1283,-214.8 1229,-214.8 1229,-178.8 1283,-178.8 1283,-214.8"/>
<text text-anchor="middle" x="1256" y="-192.6" font-family="Times,serif" font-size="14.00">Cart </text>
</g>
<!-- ComponentsModule&#45;&gt;Cart  -->
<g id="edge13" class="edge">
<title>ComponentsModule&#45;&gt;Cart </title>
<path fill="none" stroke="black" stroke-dasharray="5,2" d="M830.34,-137.8C962.59,-137.8 1249.5,-137.8 1249.5,-137.8 1249.5,-137.8 1249.5,-168.78 1249.5,-168.78"/>
<polygon fill="black" stroke="black" points="1246,-168.78 1249.5,-178.78 1253,-168.78 1246,-168.78"/>
</g>
<!-- CategoryCard  -->
<g id="node15" class="node">
<title>CategoryCard </title>
<polygon fill="#fb8072" stroke="black" points="1211.03,-214.8 1112.97,-214.8 1112.97,-178.8 1211.03,-178.8 1211.03,-214.8"/>
<text text-anchor="middle" x="1162" y="-192.6" font-family="Times,serif" font-size="14.00">CategoryCard </text>
</g>
<!-- ComponentsModule&#45;&gt;CategoryCard  -->
<g id="edge14" class="edge">
<title>ComponentsModule&#45;&gt;CategoryCard </title>
<path fill="none" stroke="black" stroke-dasharray="5,2" d="M830.38,-141.8C941.58,-141.8 1155.62,-141.8 1155.62,-141.8 1155.62,-141.8 1155.62,-168.79 1155.62,-168.79"/>
<polygon fill="black" stroke="black" points="1152.13,-168.79 1155.62,-178.79 1159.13,-168.79 1152.13,-168.79"/>
</g>
<!-- CategoryComponent  -->
<g id="node16" class="node">
<title>CategoryComponent </title>
<polygon fill="#fb8072" stroke="black" points="1095.15,-214.8 958.85,-214.8 958.85,-178.8 1095.15,-178.8 1095.15,-214.8"/>
<text text-anchor="middle" x="1027" y="-192.6" font-family="Times,serif" font-size="14.00">CategoryComponent </text>
</g>
<!-- ComponentsModule&#45;&gt;CategoryComponent  -->
<g id="edge15" class="edge">
<title>ComponentsModule&#45;&gt;CategoryComponent </title>
<path fill="none" stroke="black" stroke-dasharray="5,2" d="M830.44,-145.8C900.3,-145.8 1001.06,-145.8 1001.06,-145.8 1001.06,-145.8 1001.06,-168.68 1001.06,-168.68"/>
<polygon fill="black" stroke="black" points="997.56,-168.68 1001.06,-178.68 1004.56,-168.68 997.56,-168.68"/>
</g>
<!-- FooterComponent  -->
<g id="node17" class="node">
<title>FooterComponent </title>
<polygon fill="#fb8072" stroke="black" points="940.88,-214.8 819.12,-214.8 819.12,-178.8 940.88,-178.8 940.88,-214.8"/>
<text text-anchor="middle" x="880" y="-192.6" font-family="Times,serif" font-size="14.00">FooterComponent </text>
</g>
<!-- ComponentsModule&#45;&gt;FooterComponent  -->
<g id="edge16" class="edge">
<title>ComponentsModule&#45;&gt;FooterComponent </title>
<path fill="none" stroke="black" stroke-dasharray="5,2" d="M824.74,-149.91C824.74,-149.91 824.74,-168.79 824.74,-168.79"/>
<polygon fill="black" stroke="black" points="821.24,-168.79 824.74,-178.79 828.24,-168.79 821.24,-168.79"/>
</g>
<!-- ItemCard  -->
<g id="node18" class="node">
<title>ItemCard </title>
<polygon fill="#fb8072" stroke="black" points="801.37,-214.8 728.63,-214.8 728.63,-178.8 801.37,-178.8 801.37,-214.8"/>
<text text-anchor="middle" x="765" y="-192.6" font-family="Times,serif" font-size="14.00">ItemCard </text>
</g>
<!-- ComponentsModule&#45;&gt;ItemCard  -->
<g id="edge17" class="edge">
<title>ComponentsModule&#45;&gt;ItemCard </title>
<path fill="none" stroke="black" stroke-dasharray="5,2" d="M765,-149.91C765,-149.91 765,-168.79 765,-168.79"/>
<polygon fill="black" stroke="black" points="761.5,-168.79 765,-178.79 768.5,-168.79 761.5,-168.79"/>
</g>
<!-- ItemComponent  -->
<g id="node19" class="node">
<title>ItemComponent </title>
<polygon fill="#fb8072" stroke="black" points="711.49,-214.8 600.51,-214.8 600.51,-178.8 711.49,-178.8 711.49,-214.8"/>
<text text-anchor="middle" x="656" y="-192.6" font-family="Times,serif" font-size="14.00">ItemComponent </text>
</g>
<!-- ComponentsModule&#45;&gt;ItemComponent  -->
<g id="edge18" class="edge">
<title>ComponentsModule&#45;&gt;ItemComponent </title>
<path fill="none" stroke="black" stroke-dasharray="5,2" d="M705.54,-149.91C705.54,-149.91 705.54,-168.79 705.54,-168.79"/>
<polygon fill="black" stroke="black" points="702.04,-168.79 705.54,-178.79 709.04,-168.79 702.04,-168.79"/>
</g>
<!-- NavbarComponent  -->
<g id="node20" class="node">
<title>NavbarComponent </title>
<polygon fill="#fb8072" stroke="black" points="583.03,-214.8 456.97,-214.8 456.97,-178.8 583.03,-178.8 583.03,-214.8"/>
<text text-anchor="middle" x="520" y="-192.6" font-family="Times,serif" font-size="14.00">NavbarComponent </text>
</g>
<!-- ComponentsModule&#45;&gt;NavbarComponent  -->
<g id="edge19" class="edge">
<title>ComponentsModule&#45;&gt;NavbarComponent </title>
<path fill="none" stroke="black" stroke-dasharray="5,2" d="M699.52,-145.8C622.25,-145.8 504.16,-145.8 504.16,-145.8 504.16,-145.8 504.16,-168.68 504.16,-168.68"/>
<polygon fill="black" stroke="black" points="500.66,-168.68 504.16,-178.68 507.66,-168.68 500.66,-168.68"/>
</g>
<!-- PaymentComponent  -->
<g id="node21" class="node">
<title>PaymentComponent </title>
<polygon fill="#fb8072" stroke="black" points="438.82,-214.8 305.18,-214.8 305.18,-178.8 438.82,-178.8 438.82,-214.8"/>
<text text-anchor="middle" x="372" y="-192.6" font-family="Times,serif" font-size="14.00">PaymentComponent </text>
</g>
<!-- ComponentsModule&#45;&gt;PaymentComponent  -->
<g id="edge20" class="edge">
<title>ComponentsModule&#45;&gt;PaymentComponent </title>
<path fill="none" stroke="black" stroke-dasharray="5,2" d="M699.77,-141.8C589.44,-141.8 377.88,-141.8 377.88,-141.8 377.88,-141.8 377.88,-168.79 377.88,-168.79"/>
<polygon fill="black" stroke="black" points="374.38,-168.79 377.88,-178.79 381.38,-168.79 374.38,-168.79"/>
</g>
<!-- SectionHeading  -->
<g id="node22" class="node">
<title>SectionHeading </title>
<polygon fill="#fb8072" stroke="black" points="287.42,-214.8 178.58,-214.8 178.58,-178.8 287.42,-178.8 287.42,-214.8"/>
<text text-anchor="middle" x="233" y="-192.6" font-family="Times,serif" font-size="14.00">SectionHeading </text>
</g>
<!-- ComponentsModule&#45;&gt;SectionHeading  -->
<g id="edge21" class="edge">
<title>ComponentsModule&#45;&gt;SectionHeading </title>
<path fill="none" stroke="black" stroke-dasharray="5,2" d="M699.62,-137.8C558.98,-137.8 240.38,-137.8 240.38,-137.8 240.38,-137.8 240.38,-168.78 240.38,-168.78"/>
<polygon fill="black" stroke="black" points="236.88,-168.78 240.38,-178.78 243.88,-168.78 236.88,-168.78"/>
</g>
<!-- commentComponent  -->
<g id="node23" class="node">
<title>commentComponent </title>
<polygon fill="#fb8072" stroke="black" points="160.43,-214.8 23.57,-214.8 23.57,-178.8 160.43,-178.8 160.43,-214.8"/>
<text text-anchor="middle" x="92" y="-192.6" font-family="Times,serif" font-size="14.00">commentComponent </text>
</g>
<!-- ComponentsModule&#45;&gt;commentComponent  -->
<g id="edge22" class="edge">
<title>ComponentsModule&#45;&gt;commentComponent </title>
<path fill="none" stroke="black" stroke-dasharray="5,2" d="M699.55,-133.8C532.13,-133.8 101.38,-133.8 101.38,-133.8 101.38,-133.8 101.38,-168.58 101.38,-168.58"/>
<polygon fill="black" stroke="black" points="97.88,-168.58 101.38,-178.58 104.88,-168.58 97.88,-168.58"/>
</g>
</g>
</svg>
